<svg width="422" height="422" viewBox="0 0 422 422" fill="none" xmlns="http://www.w3.org/2000/svg">
<path d="M8.83835 413.162C7.67735 412.002 8.83835 413.162 5.83835 410.162C3.33835 407.662 5.83835 410.162 2.83835 407.162C0.838348 405.162 2.83835 407.162 0.838348 405.162C0.000457764 404.393 2.83835 407.162 0.000457764 404.324L378.663 25.6622L83.8383 25.6622C80.5231 25.6622 9.83832 25.6621 0.838348 25.6622C0.838348 16.1621 0.838348 16.4774 0.838348 13.1622C0.838348 9.84696 0.838379 13.1619 0.838348 0.662078C10.8383 0.661831 80.5231 0.662167 83.8383 0.662167L408.838 0.662167C414.838 0.662315 415.838 0.662145 421.338 0.662145C421.338 9.16215 421.338 9.16194 421.338 13.1622V338.162C421.338 341.477 421.338 411.5 421.338 422C411.338 422 409 422 409 422C409 422 408 422 396.338 422C396.338 412.5 396.338 341.477 396.338 338.162V43.338L17.6762 422C16.3383 420.5 17.6762 422 15.8383 420.162C14.3383 418.662 15.7944 420.205 14.3383 418.662C11.7201 415.888 14.3383 418.662 11.8383 416C8.83835 413.162 9.99874 414.323 8.83835 413.162Z" fill="black"/>
</svg>
