<svg width="182" height="182" viewBox="0 0 182 182" fill="none" xmlns="http://www.w3.org/2000/svg">
<rect width="182" height="182" rx="91" fill="white"/>
<path d="M48.8238 91.3L74.6827 76.3598C80.7209 72.8213 82.8213 65.0891 79.2771 59.0606C75.7329 53.0321 67.9884 50.9353 61.9498 54.4737L17.3203 80.1604L48.8238 91.3Z" fill="#EA4335"/>
<path d="M68.2509 129.568C72.5826 129.568 76.9143 127.34 79.277 123.277C82.8211 117.248 80.7211 109.516 74.6826 105.978L30.053 80.2914C24.0149 76.7529 16.27 78.8498 12.7258 84.8783C9.18206 90.9068 11.282 98.6391 17.3201 102.177L61.9501 127.864C63.9192 129.044 66.1505 129.568 68.2509 129.568Z" fill="#4285F4"/>
<path d="M112.618 129.568C114.718 129.568 116.949 129.044 118.918 127.864L163.548 102.178L132.438 90.7759L106.186 105.847C100.147 109.385 98.0471 117.118 101.591 123.146C103.954 127.34 108.286 129.568 112.618 129.568Z" fill="#FBBC04"/>
<path d="M157.247 103.881C161.579 103.881 165.91 101.653 168.273 97.5907C171.817 91.5622 169.717 83.83 163.679 80.2915L119.049 54.6048C113.011 51.0664 105.266 53.1633 101.722 59.1917C98.178 65.2203 100.278 72.9524 106.316 76.4909L150.946 102.178C152.915 103.357 155.146 103.881 157.247 103.881Z" fill="#34A853"/>
</svg>
