<svg width="200" height="250" viewBox="0 0 200 250" fill="none" xmlns="http://www.w3.org/2000/svg">
<g clip-path="url(#clip0_158_2)">
<path d="M200 0H0V250H200V0Z" fill="white"/>
<path d="M200 0H80V150H200V0Z" fill="black"/>
<path d="M120 100H0V250H120V100Z" fill="black"/>
<path d="M190 10H10V240H190V10Z" fill="black"/>
<path d="M33.3813 78V38H46.897C50.035 38 52.6001 38.5664 54.5923 39.6992C56.5975 40.819 58.0819 42.3359 59.0454 44.25C60.009 46.1641 60.4907 48.2995 60.4907 50.6562C60.4907 53.013 60.009 55.1549 59.0454 57.082C58.0949 59.0091 56.6235 60.5456 54.6313 61.6914C52.6392 62.8242 50.0871 63.3906 46.9751 63.3906H37.2876V59.0938H46.8188C48.9673 59.0938 50.6925 58.7227 51.9946 57.9805C53.2967 57.2383 54.2407 56.2357 54.8267 54.9727C55.4256 53.6966 55.7251 52.2578 55.7251 50.6562C55.7251 49.0547 55.4256 47.6224 54.8267 46.3594C54.2407 45.0964 53.2902 44.1068 51.9751 43.3906C50.66 42.6615 48.9152 42.2969 46.7407 42.2969H38.2251V78H33.3813ZM117.512 58C117.512 62.2187 116.75 65.8646 115.227 68.9375C113.704 72.0104 111.614 74.3802 108.958 76.0469C106.301 77.7135 103.267 78.5469 99.856 78.5469C96.4445 78.5469 93.4106 77.7135 90.7544 76.0469C88.0981 74.3802 86.0083 72.0104 84.4849 68.9375C82.9614 65.8646 82.1997 62.2187 82.1997 58C82.1997 53.7812 82.9614 50.1354 84.4849 47.0625C86.0083 43.9896 88.0981 41.6198 90.7544 39.9531C93.4106 38.2865 96.4445 37.4531 99.856 37.4531C103.267 37.4531 106.301 38.2865 108.958 39.9531C111.614 41.6198 113.704 43.9896 115.227 47.0625C116.75 50.1354 117.512 53.7812 117.512 58ZM112.825 58C112.825 54.5365 112.245 51.6133 111.086 49.2305C109.941 46.8477 108.385 45.0443 106.418 43.8203C104.465 42.5964 102.278 41.9844 99.856 41.9844C97.4341 41.9844 95.2401 42.5964 93.2739 43.8203C91.3208 45.0443 89.7648 46.8477 88.606 49.2305C87.4601 51.6133 86.8872 54.5365 86.8872 58C86.8872 61.4635 87.4601 64.3867 88.606 66.7695C89.7648 69.1523 91.3208 70.9557 93.2739 72.1797C95.2401 73.4036 97.4341 74.0156 99.856 74.0156C102.278 74.0156 104.465 73.4036 106.418 72.1797C108.385 70.9557 109.941 69.1523 111.086 66.7695C112.245 64.3867 112.825 61.4635 112.825 58ZM141.125 78V38H154.641C157.766 38 160.331 38.5339 162.336 39.6016C164.342 40.6562 165.826 42.1081 166.79 43.957C167.753 45.806 168.235 47.9089 168.235 50.2656C168.235 52.6224 167.753 54.7122 166.79 56.5352C165.826 58.3581 164.348 59.7904 162.356 60.832C160.364 61.8607 157.818 62.375 154.719 62.375H143.782V58H154.563C156.698 58 158.417 57.6875 159.719 57.0625C161.034 56.4375 161.985 55.5521 162.571 54.4062C163.17 53.2474 163.469 51.8672 163.469 50.2656C163.469 48.6641 163.17 47.2643 162.571 46.0664C161.972 44.8685 161.015 43.944 159.7 43.293C158.385 42.6289 156.646 42.2969 154.485 42.2969H145.969V78H141.125ZM159.954 60.0312L169.797 78H164.172L154.485 60.0312H159.954ZM32.4561 109.297V105H62.4561V109.297H49.8779V145H45.0342V109.297H32.4561ZM85.4004 145V105H109.385V109.297H90.2441V122.812H107.588V127.109H90.2441V145H85.4004ZM166.899 125C166.899 129.219 166.138 132.865 164.614 135.937C163.091 139.01 161.001 141.38 158.345 143.047C155.688 144.714 152.655 145.547 149.243 145.547C145.832 145.547 142.798 144.714 140.142 143.047C137.485 141.38 135.396 139.01 133.872 135.937C132.349 132.865 131.587 129.219 131.587 125C131.587 120.781 132.349 117.135 133.872 114.062C135.396 110.99 137.485 108.62 140.142 106.953C142.798 105.286 145.832 104.453 149.243 104.453C152.655 104.453 155.688 105.286 158.345 106.953C161.001 108.62 163.091 110.99 164.614 114.062C166.138 117.135 166.899 120.781 166.899 125ZM162.212 125C162.212 121.536 161.632 118.613 160.474 116.23C159.328 113.848 157.772 112.044 155.806 110.82C153.853 109.596 151.665 108.984 149.243 108.984C146.821 108.984 144.627 109.596 142.661 110.82C140.708 112.044 139.152 113.848 137.993 116.23C136.847 118.613 136.274 121.536 136.274 125C136.274 128.464 136.847 131.387 137.993 133.77C139.152 136.152 140.708 137.956 142.661 139.18C144.627 140.404 146.821 141.016 149.243 141.016C151.665 141.016 153.853 140.404 155.806 139.18C157.772 137.956 159.328 136.152 160.474 133.77C161.632 131.387 162.212 128.464 162.212 125ZM37.9468 212V172H42.7905V207.703H61.3843V212H37.9468ZM89.1968 172V212H84.353V172H89.1968ZM163.596 192C163.596 196.219 162.834 199.865 161.311 202.937C159.788 206.01 157.698 208.38 155.042 210.047C152.385 211.714 149.351 212.547 145.94 212.547C142.528 212.547 139.495 211.714 136.838 210.047C134.182 208.38 132.092 206.01 130.569 202.937C129.045 199.865 128.284 196.219 128.284 192C128.284 187.781 129.045 184.135 130.569 181.062C132.092 177.99 134.182 175.62 136.838 173.953C139.495 172.286 142.528 171.453 145.94 171.453C149.351 171.453 152.385 172.286 155.042 173.953C157.698 175.62 159.788 177.99 161.311 181.062C162.834 184.135 163.596 187.781 163.596 192ZM158.909 192C158.909 188.536 158.329 185.613 157.17 183.23C156.025 180.848 154.469 179.044 152.502 177.82C150.549 176.596 148.362 175.984 145.94 175.984C143.518 175.984 141.324 176.596 139.358 177.82C137.405 179.044 135.849 180.848 134.69 183.23C133.544 185.613 132.971 188.536 132.971 192C132.971 195.464 133.544 198.387 134.69 200.77C135.849 203.152 137.405 204.956 139.358 206.18C141.324 207.404 143.518 208.016 145.94 208.016C148.362 208.016 150.549 207.404 152.502 206.18C154.469 204.956 156.025 203.152 157.17 200.77C158.329 198.387 158.909 195.464 158.909 192Z" fill="white"/>
</g>
<defs>
<clipPath id="clip0_158_2">
<rect width="200" height="250" fill="white"/>
</clipPath>
</defs>
</svg>
