<svg width="100" height="100" viewBox="0 0 100 100" fill="none" xmlns="http://www.w3.org/2000/svg">
<path d="M22.1413 30V13.2727H27.7933C29.1055 13.2727 30.1782 13.5096 31.0113 13.9833C31.8499 14.4516 32.4706 15.0859 32.8735 15.8864C33.2765 16.6868 33.4779 17.5798 33.4779 18.5653C33.4779 19.5509 33.2765 20.4466 32.8735 21.2525C32.476 22.0584 31.8608 22.7009 31.0277 23.18C30.1946 23.6538 29.1273 23.8906 27.826 23.8906H23.7748V22.0938H27.7606C28.659 22.0938 29.3805 21.9386 29.925 21.6282C30.4695 21.3178 30.8643 20.8986 31.1093 20.3704C31.3598 19.8368 31.485 19.2351 31.485 18.5653C31.485 17.8956 31.3598 17.2966 31.1093 16.7685C30.8643 16.2403 30.4668 15.8265 29.9169 15.527C29.3669 15.2221 28.6373 15.0696 27.7279 15.0696H24.1669V30H22.1413ZM57.3233 21.6364C57.3233 23.4006 57.0047 24.9252 56.3677 26.2102C55.7306 27.4953 54.8567 28.4863 53.7459 29.1832C52.6351 29.8802 51.3664 30.2287 49.9398 30.2287C48.5132 30.2287 47.2445 29.8802 46.1337 29.1832C45.0229 28.4863 44.1489 27.4953 43.5119 26.2102C42.8748 24.9252 42.5562 23.4006 42.5562 21.6364C42.5562 19.8722 42.8748 18.3475 43.5119 17.0625C44.1489 15.7775 45.0229 14.7865 46.1337 14.0895C47.2445 13.3925 48.5132 13.044 49.9398 13.044C51.3664 13.044 52.6351 13.3925 53.7459 14.0895C54.8567 14.7865 55.7306 15.7775 56.3677 17.0625C57.0047 18.3475 57.3233 19.8722 57.3233 21.6364ZM55.3631 21.6364C55.3631 20.188 55.1208 18.9656 54.6361 17.9691C54.157 16.9727 53.5063 16.2185 52.6841 15.7067C51.8673 15.1948 50.9525 14.9389 49.9398 14.9389C48.927 14.9389 48.0095 15.1948 47.1873 15.7067C46.3705 16.2185 45.7198 16.9727 45.2352 17.9691C44.7561 18.9656 44.5165 20.188 44.5165 21.6364C44.5165 23.0848 44.7561 24.3072 45.2352 25.3036C45.7198 26.3001 46.3705 27.0542 47.1873 27.5661C48.0095 28.0779 48.927 28.3338 49.9398 28.3338C50.9525 28.3338 51.8673 28.0779 52.6841 27.5661C53.5063 27.0542 54.157 26.3001 54.6361 25.3036C55.1208 24.3072 55.3631 23.0848 55.3631 21.6364ZM67.1979 30V13.2727H72.8499C74.1567 13.2727 75.2294 13.496 76.068 13.9425C76.9065 14.3835 77.5272 14.9906 77.9302 15.7638C78.3331 16.5371 78.5346 17.4164 78.5346 18.402C78.5346 19.3875 78.3331 20.2615 77.9302 21.0238C77.5272 21.7861 76.9092 22.3851 76.0761 22.8207C75.243 23.2508 74.1785 23.4659 72.8826 23.4659H68.3087V21.6364H72.8172C73.7102 21.6364 74.429 21.5057 74.9735 21.2443C75.5235 20.983 75.9209 20.6127 76.166 20.1335C76.4164 19.6489 76.5417 19.0717 76.5417 18.402C76.5417 17.7322 76.4164 17.1469 76.166 16.646C75.9155 16.145 75.5153 15.7584 74.9653 15.4862C74.4154 15.2085 73.6885 15.0696 72.7846 15.0696H69.2235V30H67.1979ZM75.0715 22.4858L79.188 30H76.8357L72.7846 22.4858H75.0715ZM21.7544 43.0696V41.2727H34.2998V43.0696H29.0399V58H27.0143V43.0696H21.7544ZM43.8947 58V41.2727H53.9245V43.0696H45.9203V48.7216H53.1731V50.5185H45.9203V58H43.8947ZM77.9761 49.6364C77.9761 51.4006 77.6576 52.9252 77.0205 54.2102C76.3834 55.4953 75.5095 56.4863 74.3987 57.1832C73.2879 57.8802 72.0192 58.2287 70.5926 58.2287C69.166 58.2287 67.8973 57.8802 66.7865 57.1832C65.6757 56.4863 64.8018 55.4953 64.1647 54.2102C63.5276 52.9252 63.2091 51.4006 63.2091 49.6364C63.2091 47.8722 63.5276 46.3475 64.1647 45.0625C64.8018 43.7775 65.6757 42.7865 66.7865 42.0895C67.8973 41.3925 69.166 41.044 70.5926 41.044C72.0192 41.044 73.2879 41.3925 74.3987 42.0895C75.5095 42.7865 76.3834 43.7775 77.0205 45.0625C77.6576 46.3475 77.9761 47.8722 77.9761 49.6364ZM76.0159 49.6364C76.0159 48.188 75.7736 46.9656 75.289 45.9691C74.8098 44.9727 74.1591 44.2185 73.3369 43.7067C72.5202 43.1948 71.6054 42.9389 70.5926 42.9389C69.5798 42.9389 68.6623 43.1948 67.8401 43.7067C67.0233 44.2185 66.3727 44.9727 65.8881 45.9691C65.4089 46.9656 65.1693 48.188 65.1693 49.6364C65.1693 51.0848 65.4089 52.3072 65.8881 53.3036C66.3727 54.3001 67.0233 55.0542 67.8401 55.5661C68.6623 56.0779 69.5798 56.3338 70.5926 56.3338C71.6054 56.3338 72.5202 56.0779 73.3369 55.5661C74.1591 55.0542 74.8098 54.3001 75.289 53.3036C75.7736 52.3072 76.0159 51.0848 76.0159 49.6364ZM24.0505 86V69.2727H26.076V84.2031H33.8516V86H24.0505ZM45.4823 69.2727V86H43.4567V69.2727H45.4823ZM76.5948 77.6364C76.5948 79.4006 76.2762 80.9252 75.6392 82.2102C75.0021 83.4953 74.1282 84.4863 73.0174 85.1832C71.9066 85.8802 70.6379 86.2287 69.2112 86.2287C67.7846 86.2287 66.5159 85.8802 65.4051 85.1832C64.2943 84.4863 63.4204 83.4953 62.7833 82.2102C62.1463 80.9252 61.8277 79.4006 61.8277 77.6364C61.8277 75.8722 62.1463 74.3475 62.7833 73.0625C63.4204 71.7775 64.2943 70.7865 65.4051 70.0895C66.5159 69.3925 67.7846 69.044 69.2112 69.044C70.6379 69.044 71.9066 69.3925 73.0174 70.0895C74.1282 70.7865 75.0021 71.7775 75.6392 73.0625C76.2762 74.3475 76.5948 75.8722 76.5948 77.6364ZM74.6345 77.6364C74.6345 76.188 74.3922 74.9656 73.9076 73.9691C73.4285 72.9727 72.7778 72.2185 71.9556 71.7067C71.1388 71.1948 70.224 70.9389 69.2112 70.9389C68.1985 70.9389 67.281 71.1948 66.4588 71.7067C65.642 72.2185 64.9913 72.9727 64.5067 73.9691C64.0275 74.9656 63.788 76.188 63.788 77.6364C63.788 79.0848 64.0275 80.3072 64.5067 81.3036C64.9913 82.3001 65.642 83.0542 66.4588 83.5661C67.281 84.0779 68.1985 84.3338 69.2112 84.3338C70.224 84.3338 71.1388 84.0779 71.9556 83.5661C72.7778 83.0542 73.4285 82.3001 73.9076 81.3036C74.3922 80.3072 74.6345 79.0848 74.6345 77.6364Z" fill="white"/>
<rect x="57.2" y="100" width="4" height="32" transform="rotate(-90 57.2 100)" fill="#D9D9D9"/>
<rect x="85.2" y="60" width="4" height="40" fill="#D9D9D9"/>
<rect x="9.20001" width="4" height="40" fill="#D9D9D9"/>
<rect x="9.20001" y="4" width="4" height="32" transform="rotate(-90 9.20001 4)" fill="#D9D9D9"/>
</svg>
